<mxfile host="app.diagrams.net" modified="2021-05-26T16:56:30.503Z" agent="5.0 (Windows NT 10.0; Win64; x64) AppleWebKit/537.36 (KHTML, like Gecko) Chrome/90.0.4430.212 Safari/537.36" etag="hZOBqkudr-kx-3UdgNof" version="14.7.2" type="github">
  <diagram id="BDgXLLoh-gGxEVWbZGpa" name="Page-1">
    <mxGraphModel dx="1102" dy="586" grid="1" gridSize="12" guides="1" tooltips="1" connect="1" arrows="1" fold="1" page="1" pageScale="1" pageWidth="850" pageHeight="1100" math="0" shadow="0">
      <root>
        <mxCell id="0" />
        <mxCell id="1" parent="0" />
        <mxCell id="56krN9JtWcQovuQ4WFig-12" value="" style="edgeStyle=orthogonalEdgeStyle;curved=0;rounded=1;sketch=0;orthogonalLoop=1;jettySize=auto;html=1;" edge="1" parent="1" source="56krN9JtWcQovuQ4WFig-3" target="56krN9JtWcQovuQ4WFig-6">
          <mxGeometry relative="1" as="geometry" />
        </mxCell>
        <mxCell id="56krN9JtWcQovuQ4WFig-3" value="Remove Drawn Layer in MapWithGeoMan" style="rounded=1;whiteSpace=wrap;html=1;sketch=0;strokeWidth=3;fontSize=18;fontStyle=1;" vertex="1" parent="1">
          <mxGeometry x="560" y="60" width="200" height="90" as="geometry" />
        </mxCell>
        <mxCell id="56krN9JtWcQovuQ4WFig-11" value="" style="edgeStyle=orthogonalEdgeStyle;curved=0;rounded=1;sketch=0;orthogonalLoop=1;jettySize=auto;html=1;" edge="1" parent="1" source="56krN9JtWcQovuQ4WFig-5" target="56krN9JtWcQovuQ4WFig-3">
          <mxGeometry relative="1" as="geometry" />
        </mxCell>
        <mxCell id="56krN9JtWcQovuQ4WFig-5" value="Save Just &lt;br style=&quot;font-size: 17px;&quot;&gt;Layer Geometry in Redux" style="rounded=1;whiteSpace=wrap;html=1;strokeWidth=3;shadow=0;fontSize=17;fontStyle=1;" vertex="1" parent="1">
          <mxGeometry x="325" y="60" width="200" height="90" as="geometry" />
        </mxCell>
        <mxCell id="56krN9JtWcQovuQ4WFig-6" value="Show Redux Layers via&amp;nbsp;&lt;br style=&quot;font-size: 17px;&quot;&gt;Geometry in ShapeList" style="rounded=1;whiteSpace=wrap;html=1;strokeWidth=3;shadow=0;fontStyle=1;fontSize=17;" vertex="1" parent="1">
          <mxGeometry x="560" y="200" width="200" height="90" as="geometry" />
        </mxCell>
        <mxCell id="56krN9JtWcQovuQ4WFig-10" value="" style="edgeStyle=orthogonalEdgeStyle;curved=0;rounded=1;sketch=0;orthogonalLoop=1;jettySize=auto;html=1;" edge="1" parent="1" source="56krN9JtWcQovuQ4WFig-8" target="56krN9JtWcQovuQ4WFig-5">
          <mxGeometry relative="1" as="geometry" />
        </mxCell>
        <mxCell id="56krN9JtWcQovuQ4WFig-8" value="Draw Layer in MapwithGeoman" style="rounded=1;whiteSpace=wrap;html=1;strokeWidth=3;shadow=0;fontSize=17;fontStyle=1;" vertex="1" parent="1">
          <mxGeometry x="90" y="60" width="200" height="90" as="geometry" />
        </mxCell>
      </root>
    </mxGraphModel>
  </diagram>
</mxfile>
